<svg xmlns="http://www.w3.org/2000/svg" xmlns:xlink="http://www.w3.org/1999/xlink" width="200" height="200" viewBox="0 0 200 200">
  <defs>
    <clipPath id="clip-Mesa_de_trabajo_5">
      <rect width="200" height="200"/>
    </clipPath>
  </defs>
  <g id="Mesa_de_trabajo_5" data-name="Mesa de trabajo – 5" clip-path="url(#clip-Mesa_de_trabajo_5)">
    <rect width="200" height="200" fill="#fff"/>
    <g id="Glyph" transform="translate(22.216 17.09)">
      <path id="Trazado_13115" data-name="Trazado 13115" d="M145.244,2H96.7A5.41,5.41,0,0,0,91.3,7.394V20.879A5.41,5.41,0,0,0,96.7,26.273h2.7V142.244a21.576,21.576,0,1,0,43.152,0V26.273h2.7a5.41,5.41,0,0,0,5.394-5.394V7.394A5.41,5.41,0,0,0,145.244,2ZM123.668,15.485a2.7,2.7,0,1,1,5.394,0v5.394h-5.394Zm-10.788,0a2.7,2.7,0,1,1,5.394,0v5.394H112.88Zm-10.788,0a2.7,2.7,0,1,1,5.394,0v5.394h-5.394Zm35.061,126.759a16.182,16.182,0,1,1-32.364,0v-94.4h32.364Zm0-110.577H104.789V26.273h32.364Zm2.7-10.788h-5.394V15.485a2.7,2.7,0,0,1,5.394,0ZM80.516,155.729V88.3A5.41,5.41,0,0,0,85.91,82.91V69.425a5.41,5.41,0,0,0-5.394-5.394H10.394A5.41,5.41,0,0,0,5,69.425V82.91A5.41,5.41,0,0,0,10.394,88.3v67.425a8.115,8.115,0,0,0,8.091,8.091h53.94a8.115,8.115,0,0,0,8.091-8.091ZM69.728,77.516a2.7,2.7,0,0,1,5.394,0V82.91H69.728Zm-10.788,0a2.7,2.7,0,0,1,5.394,0V82.91H58.94Zm-10.788,0a2.7,2.7,0,0,1,5.394,0V82.91H48.152Zm-10.788,0a2.7,2.7,0,0,1,5.394,0V82.91H37.364Zm-10.788,0a2.7,2.7,0,0,1,5.394,0V82.91H26.576Zm-10.788,0a2.7,2.7,0,0,1,5.394,0V82.91H15.788Zm0,10.788H75.122V93.7H15.788Zm0,67.425V109.88H75.122v45.849a2.7,2.7,0,0,1-2.7,2.7H18.485A2.7,2.7,0,0,1,15.788,155.729Z" transform="translate(0 0)" fill="#20319f"/>
      <path id="Trazado_13116" data-name="Trazado 13116" d="M57.173,79.142c-12.137-1.429-15.751,1.429-19.931,4.72-6.284,4.828-16.02,10.734-22.25,7.147A2.7,2.7,0,0,0,11,93.382v17.746a5.41,5.41,0,0,0,5.394,5.394H54.152a5.41,5.41,0,0,0,5.394-5.394V81.812a2.7,2.7,0,0,0-2.373-2.67Zm53.616,37.38a10.788,10.788,0,0,0,10.788-10.788V27.521c-.108-2.454-3.236-3.992-5.151-3.992-4.882-.432-8.55,8.6-12.892,6.823A2.713,2.713,0,0,0,100,32.915v72.819A10.788,10.788,0,0,0,110.789,116.522Z" transform="translate(10.182 36.51)" fill="#20319f"/>
    </g>
  </g>
</svg>
