<svg xmlns="http://www.w3.org/2000/svg" width="443.791" height="417.993" viewBox="0 0 443.791 417.993">
  <g id="Looding_19" data-name="Looding 19" transform="translate(-2.103 -2.911)">
    <path id="Trazado_13234" data-name="Trazado 13234" d="M445.781,208.874a40.078,40.078,0,1,0-79.834,7.185,154.08,154.08,0,0,1-26.824,101.23,163.5,163.5,0,0,1-91.65,63.867,171,171,0,0,1-117.835-11.177,182.661,182.661,0,0,1-87.5-89.734,192.72,192.72,0,0,0,77.439,107.3,200.862,200.862,0,0,0,134.76,31.934,212.518,212.518,0,0,0,130.609-63.867A223.536,223.536,0,0,0,445.781,215.9v-1.277a36.568,36.568,0,0,0,0-5.748ZM82.056,207.756a154.08,154.08,0,0,1,26.824-101.23,163.5,163.5,0,0,1,91.65-63.867A171,171,0,0,1,318.365,53.836a182.661,182.661,0,0,1,87.5,89.734,192.72,192.72,0,0,0-77.439-107.3A200.863,200.863,0,0,0,193.664,4.338,212.519,212.519,0,0,0,63.056,68.206,223.536,223.536,0,0,0,2.222,207.916v1.277a36.563,36.563,0,0,0,0,5.908,40.078,40.078,0,0,0,79.834-7.185Z" transform="translate(0)" fill="#fff"/>
  </g>
</svg>
