<?xml version="1.0" encoding="UTF-8"?><svg id="Capa_1" xmlns="http://www.w3.org/2000/svg" viewBox="0 0 195.88 152.36"><defs><style>.cls-1{fill:#fff;stroke-width:0px;}</style></defs><path id="Icon_awesome-home-2" class="cls-1" d="M95.33,39.52l-62.7,51.64v55.75c0,3,2.44,5.44,5.44,5.44l38.11-.1c3-.01,5.42-2.44,5.42-5.44v-32.55c0-3,2.44-5.44,5.44-5.44h21.77c3,0,5.44,2.44,5.44,5.44v32.53c-.01,3,2.41,5.45,5.42,5.46,0,0,.02,0,.02,0l38.1.11c3,0,5.44-2.44,5.44-5.44v-55.78l-62.7-51.61c-1.51-1.21-3.67-1.21-5.18,0ZM194.39,74.63l-28.44-23.43V4.08c0-2.25-1.83-4.08-4.08-4.08h-19.05c-2.25,0-4.08,1.83-4.08,4.08h0v24.7L108.29,3.72c-6.03-4.96-14.72-4.96-20.75,0L1.48,74.63c-1.74,1.43-1.98,4.01-.55,5.74,0,0,0,0,0,0l8.67,10.58c1.43,1.74,4,1.99,5.74.56,0,0,0,0,0,0L95.33,25.58c1.52-1.22,3.69-1.22,5.21,0l80,65.89c1.73,1.44,4.31,1.2,5.74-.54,0,0,0,0,0,0l8.67-10.58c1.43-1.74,1.18-4.31-.56-5.74,0,0-.01,0-.02-.01l.02.03Z"/></svg>