<svg xmlns="http://www.w3.org/2000/svg" width="508.314" height="478.767" viewBox="0 0 508.314 478.767">
  <g id="Looding_19" data-name="Looding 19" transform="translate(-2.103 -2.91)">
    <path id="Trazado_13231" data-name="Trazado 13231" d="M510.287,238.819a45.905,45.905,0,0,0-91.441,8.23A176.482,176.482,0,0,1,388.122,363a187.272,187.272,0,0,1-104.975,73.153,195.867,195.867,0,0,1-134.967-12.8A209.218,209.218,0,0,1,47.96,320.567a220.74,220.74,0,0,0,88.7,122.9,230.066,230.066,0,0,0,154.353,36.576,243.417,243.417,0,0,0,149.6-73.153,256.036,256.036,0,0,0,69.678-160.022V245.4a41.882,41.882,0,0,0,0-6.584Zm-416.607-1.28a176.482,176.482,0,0,1,30.724-115.948A187.272,187.272,0,0,1,229.38,48.438a195.867,195.867,0,0,1,134.967,12.8,209.218,209.218,0,0,1,100.22,102.78,220.739,220.739,0,0,0-88.7-122.9A230.066,230.066,0,0,0,221.516,4.546,243.417,243.417,0,0,0,71.918,77.7,256.036,256.036,0,0,0,2.239,237.721v1.463a41.881,41.881,0,0,0,0,6.767,45.905,45.905,0,1,0,91.441-8.23Z" transform="translate(0)" fill="currentColor"/>
  </g>
</svg>
