<?xml version="1.0" encoding="UTF-8"?><svg id="Capa_1" xmlns="http://www.w3.org/2000/svg" viewBox="0 0 193.23 193.23"><defs><style>.cls-1{fill:#fff;stroke-width:0px;}</style></defs><g id="Hover"><g id="_2"><g id="Grupo_27319"><path id="Trazado_107" class="cls-1" d="M193.23,115.94v-38.65l-23.19-5.8c-.88-3.06-2.18-5.99-3.86-8.7l12.56-21.26-27.05-27.05-21.26,12.56c-2.9-.97-5.8-2.9-8.7-3.86L115.94,0h-38.65l-5.8,23.19c-2.71,1.69-5.63,2.99-8.7,3.86l-21.26-12.56-27.05,27.05,12.56,21.26c-.97,2.9-2.9,5.8-3.86,8.7L0,77.29v38.65l23.19,5.8c.88,3.06,2.18,5.99,3.86,8.7l-12.56,21.26,27.05,27.05,21.26-12.56c2.9.97,5.8,2.9,8.7,3.86l5.8,23.19h38.65l5.8-23.19c3.06-.88,5.99-2.18,8.7-3.86l21.26,12.56,27.05-27.05-12.56-21.26c.97-2.9,2.9-5.8,3.86-8.7l23.19-5.8ZM96.62,125.6c-15.72.29-28.7-12.22-28.98-27.94,0-.35,0-.69,0-1.04-.29-15.72,12.22-28.7,27.94-28.98.35,0,.69,0,1.04,0,15.72-.29,28.7,12.22,28.98,27.94,0,.35,0,.69,0,1.04.29,15.72-12.22,28.7-27.94,28.98-.35,0-.69,0-1.04,0Z"/></g></g></g></svg>