<?xml version="1.0" encoding="UTF-8"?><svg id="Capa_1" xmlns="http://www.w3.org/2000/svg" viewBox="0 0 195.35 196"><defs><style>.cls-1{fill:#fff;stroke-width:0px;}</style></defs><g id="Hover"><g id="_3"><g id="Grupo_27379"><g id="Grupo_27321"><g id="Grupo_27320"><path id="Trazado_108" class="cls-1" d="M174.89.02H19.61c-5.07-.29-9.42,3.61-9.71,8.73-.02.38-.02.75,0,1.13v127.96c0,5.42,4.34,9.82,9.71,9.86h155.28c5.23-.37,9.37-4.58,9.71-9.86V9.86c0-5.41-4.34-9.81-9.71-9.85ZM165.18,118.15H29.28V19.71h135.94l-.03,98.44Z"/></g></g><g id="Grupo_27323"><g id="Grupo_27322"><path id="Trazado_109" class="cls-1" d="M189.53,166.45h-72.86v9.86h-38.85v-9.86H4.95c-2.69-.04-4.91,2.12-4.95,4.84,0,.36.03.71.1,1.06l8.74,19.71c.5,2.3,2.52,3.94,4.85,3.93h168.06c2.33,0,4.35-1.63,4.85-3.93l8.74-19.71c.13-3.12-2.27-5.77-5.37-5.9-.15,0-.3,0-.45,0Z"/></g></g><g id="Grupo_27325"><g id="Grupo_27324"><path id="Trazado_110" class="cls-1" d="M126.58,39.19H58.25c-5.4,0-9.77,4.41-9.77,9.86s4.38,9.86,9.77,9.86h68.32c5.4,0,9.77-4.41,9.77-9.86s-4.38-9.86-9.77-9.86h.01Z"/></g></g><g id="Grupo_27327"><g id="Grupo_27326"><path id="Trazado_111" class="cls-1" d="M87.66,78.36h-29.32c-5.4,0-9.77,4.41-9.77,9.86s4.38,9.86,9.77,9.86h29.32c5.4,0,9.77-4.41,9.77-9.86s-4.38-9.86-9.77-9.86h0Z"/></g></g><g id="Grupo_27329"><g id="Grupo_27328"><path id="Trazado_112" class="cls-1" d="M131.22,72.49l6.83-6.89-24.4,2.96-2.93,24.61,6.83-6.89,13.66,13.78,13.66-13.78-13.65-13.79Z"/></g></g></g></g></g></svg>