<?xml version="1.0" encoding="UTF-8"?><svg id="Capa_1" xmlns="http://www.w3.org/2000/svg" viewBox="0 0 194.61 194.56"><defs><style>.cls-1{fill:#fff;stroke-width:0px;}</style></defs><g id="Grupo_27363"><g id="Grupo_27362"><path id="Trazado_126" class="cls-1" d="M189.74,136.24H19.46V38.91h68.13v-19.44H9.74C4.37,19.47.02,23.82.02,29.19v126.48c-.3,5.07,3.57,9.42,8.64,9.72.36.02.72.02,1.08,0h77.85v9.72h-29.25c-5.37,0-9.72,4.35-9.72,9.72h0v9.72h97.3v-9.72c0-5.37-4.35-9.72-9.72-9.72h-29.16v-9.72h77.83c5.07.3,9.42-3.57,9.72-8.64.02-.36.02-.72,0-1.08v-19.44h-4.85Z"/></g></g><g id="Grupo_27365"><g id="Grupo_27364"><path id="Trazado_127" class="cls-1" d="M189.75,0h-77.85c-2.53-.15-4.71,1.78-4.86,4.31-.01.18-.01.37,0,.55v107.03c-.15,2.53,1.78,4.71,4.31,4.86.18.01.37.01.55,0h77.83c2.53.15,4.71-1.78,4.86-4.31.01-.18.01-.37,0-.55V4.87c.15-2.53-1.78-4.71-4.31-4.86-.18-.01-.36-.01-.54,0ZM175.17,77.84h-48.6V19.45h48.6v58.39Z"/></g></g></svg>