<svg xmlns="http://www.w3.org/2000/svg" width="315.398" height="315.397" viewBox="0 0 315.398 315.397">
  <path id="fb0655ae4007975ee83591b641b7585e" d="M74.593,148.185H43.053A42.053,42.053,0,0,0,1,190.238V305.884A10.513,10.513,0,0,0,11.513,316.4h63.08a10.513,10.513,0,0,0,10.513-10.513V158.7A10.513,10.513,0,0,0,74.593,148.185ZM190.239,74.593H158.7a42.053,42.053,0,0,0-42.053,42.053V305.884A10.513,10.513,0,0,0,127.16,316.4h63.08a10.513,10.513,0,0,0,10.513-10.513V85.106A10.513,10.513,0,0,0,190.239,74.593ZM305.886,1h-31.54a42.053,42.053,0,0,0-42.053,42.053V305.884A10.513,10.513,0,0,0,242.806,316.4h63.08A10.513,10.513,0,0,0,316.4,305.884V11.513A10.513,10.513,0,0,0,305.886,1Z" transform="translate(-1 -1)" fill="currentColor"/>
</svg>
