<svg xmlns="http://www.w3.org/2000/svg" xmlns:xlink="http://www.w3.org/1999/xlink" width="200" height="200" viewBox="0 0 200 200">
  <defs>
    <clipPath id="clip-Mesa_de_trabajo_2">
      <rect width="200" height="200"/>
    </clipPath>
  </defs>
  <g id="Mesa_de_trabajo_2" data-name="Mesa de trabajo – 2" clip-path="url(#clip-Mesa_de_trabajo_2)">
    <rect width="200" height="200" fill="#fff"/>
    <path id="_29_Business_Chart_Business_Evaluation_Business_Progress_Data_Analytics_Statistics" data-name="29 Business Chart, Business Evaluation, Business Progress, Data Analytics, Statistics" d="M32.706,109.471H25.029V13.515A11.515,11.515,0,0,1,36.544,2h92.118a11.515,11.515,0,0,1,11.515,11.515v7.676H132.5V13.515a3.838,3.838,0,0,0-3.838-3.838H36.544a3.838,3.838,0,0,0-3.838,3.838Zm99.794,49.9a3.838,3.838,0,0,1-3.838,3.838H36.544a3.838,3.838,0,0,1-3.838-3.838v-7.676H25.029v7.676a11.515,11.515,0,0,0,11.515,11.515h92.118a11.515,11.515,0,0,0,11.515-11.515V117.147H132.5Zm-30.706-19.191H2v7.676h99.794Zm49.9-65.25H124.824V48.059a3.838,3.838,0,0,0-3.838-3.838A34.544,34.544,0,1,0,155.53,78.765,3.838,3.838,0,0,0,151.692,74.927ZM136.339,28.868a3.838,3.838,0,0,0-3.838,3.838V63.412a3.838,3.838,0,0,0,3.838,3.838h30.706a3.838,3.838,0,0,0,3.838-3.838A34.544,34.544,0,0,0,136.339,28.868ZM32.706,117.147a3.838,3.838,0,0,0-3.838-3.838H13.515a3.838,3.838,0,0,0-3.838,3.838v19.191H32.706ZM44.221,94.118a3.838,3.838,0,0,0-3.838,3.838v38.382H63.412V97.956a3.838,3.838,0,0,0-3.838-3.838Zm49.9,23.029a3.838,3.838,0,0,0-3.838-3.838H74.927a3.838,3.838,0,0,0-3.838,3.838v19.191H94.118Zm0-80.6V21.191a3.838,3.838,0,0,0-3.838-3.838H44.221a3.838,3.838,0,0,0-3.838,3.838V36.544a3.838,3.838,0,0,0,3.838,3.838H90.28A3.838,3.838,0,0,0,94.118,36.544ZM40.382,55.735H82.6V48.059H40.382ZM82.6,63.412H40.382v7.676H82.6Zm0,15.353H40.382v7.676H82.6Z" transform="translate(13.76 14.207)" fill="#6b4b8b"/>
  </g>
</svg>
