<svg xmlns="http://www.w3.org/2000/svg" width="409.718" height="443.383" viewBox="0 0 409.718 443.383">
  <g id="goals" transform="translate(-3.062 -2)">
    <path id="Trazado_13228" data-name="Trazado 13228" d="M363.311,3.613H292.48c.206.713.633,1.314.808,2.043l8.693,35.566h51.527A21.727,21.727,0,0,1,375.2,62.915V362.4A21.717,21.717,0,0,1,353.509,384.1H62.349A21.727,21.727,0,0,1,40.655,362.4V62.9A21.727,21.727,0,0,1,62.349,41.205h51.48l8.678-35.5c.19-.744.618-1.378.823-2.106h-70.8A49.466,49.466,0,0,0,3.062,53.066V372.206a49.459,49.459,0,0,0,49.469,49.485h310.78a49.476,49.476,0,0,0,49.469-49.469V53.082A49.466,49.466,0,0,0,363.311,3.613Z" transform="translate(0 23.692)" fill="currentColor"/>
    <path id="Trazado_13229" data-name="Trazado 13229" d="M24.223,100.209H167.277c8.82,0,15.328-8.155,11.971-21.884l-11.2-45.8A32.7,32.7,0,0,0,144.427,8.667,208.829,208.829,0,0,0,95.734,2,208.258,208.258,0,0,0,47.121,8.651,32.8,32.8,0,0,0,23.416,32.593l-12.4,50.8A13.594,13.594,0,0,0,24.223,100.209Z" transform="translate(112.155)" fill="currentColor"/>
    <path id="Trazado_13230" data-name="Trazado 13230" d="M231.588,42.134H88.549A27.045,27.045,0,0,1,62.263,8.675l.443-1.837H14.52a8.238,8.238,0,0,0-8.234,8.234V314.561A8.238,8.238,0,0,0,14.52,322.8H305.649a8.238,8.238,0,0,0,8.234-8.234V15.056a8.238,8.238,0,0,0-8.234-8.234H257.114c1.679,9.9,0,18.907-5.226,25.574A25.564,25.564,0,0,1,231.588,42.134ZM218.825,164.54l-64.243,51.749a22.273,22.273,0,0,1-14,4.941,22.64,22.64,0,0,1-2.534-.143,22.279,22.279,0,0,1-15.028-8.408L97.781,180.486a22.321,22.321,0,1,1,35.138-27.537l11.29,14.394,46.619-37.561a22.316,22.316,0,1,1,28,34.758Z" transform="translate(47.828 71.535)" fill="currentColor"/>
  </g>
</svg>
