<?xml version="1.0" encoding="UTF-8"?><svg id="Capa_1" xmlns="http://www.w3.org/2000/svg" xmlns:xlink="http://www.w3.org/1999/xlink" viewBox="0 0 194.37 150.52"><defs><style>.cls-1{clip-path:url(#clippath);}.cls-2{fill:none;}.cls-2,.cls-3{stroke-width:0px;}.cls-3{fill:#fff;}</style><clipPath id="clippath"><rect class="cls-2" width="194.37" height="150.52"/></clipPath></defs><g class="cls-1"><g id="Grupo_27311"><path id="Trazado_55" class="cls-3" d="M79.58,101.31c-.01,5.43-4.42,9.82-9.85,9.81-5.43-.01-9.82-4.42-9.81-9.85.01-5.42,4.41-9.81,9.83-9.81,5.43,0,9.83,4.41,9.83,9.85h0"/><path id="Trazado_56" class="cls-3" d="M106.85,75.9c-.01,5.43-4.42,9.82-9.85,9.81-5.43-.01-9.82-4.42-9.81-9.85.01-5.42,4.41-9.81,9.83-9.81,5.43,0,9.83,4.41,9.83,9.85h0"/><path id="Trazado_57" class="cls-3" d="M132.85,101.31c-.01,5.43-4.42,9.82-9.85,9.81-5.43-.01-9.82-4.42-9.81-9.85.01-5.42,4.41-9.81,9.83-9.81,5.43,0,9.83,4.41,9.83,9.85h0"/><path id="Trazado_58" class="cls-3" d="M160.12,75.9c-.01,5.43-4.42,9.82-9.85,9.81-5.43-.01-9.82-4.42-9.81-9.85.01-5.42,4.41-9.81,9.83-9.81,5.43,0,9.83,4.41,9.83,9.85h0"/><path id="Trazado_59" class="cls-3" d="M53.9,49.21c-.01,5.43-4.42,9.82-9.85,9.81-5.43-.01-9.82-4.42-9.81-9.85.01-5.42,4.41-9.81,9.83-9.81,5.43,0,9.83,4.41,9.83,9.85h0"/><path id="Trazado_60" class="cls-3" d="M106.85,49.21c-.01,5.43-4.42,9.82-9.85,9.81-5.43-.01-9.82-4.42-9.81-9.85.01-5.42,4.41-9.81,9.83-9.81,5.43,0,9.83,4.41,9.83,9.85h0"/><path id="Trazado_61" class="cls-3" d="M132.85,49.21c-.01,5.43-4.42,9.82-9.85,9.81-5.43-.01-9.82-4.42-9.81-9.85.01-5.42,4.41-9.8,9.82-9.81,5.43,0,9.83,4.41,9.83,9.85h0"/><path id="Trazado_62" class="cls-3" d="M150.29,39.36c-5.43,0-9.83,4.41-9.83,9.84,0,1.46.33,2.89.95,4.21l-13.77,13.79c-4.8-2.55-10.76-.72-13.31,4.08-1.53,2.89-1.53,6.36,0,9.25l-12.3,12.34c-3.52-2.11-7.98-1.8-11.17.78l-12.68-12.71c2.78-4.66,1.25-10.69-3.41-13.47-4.66-2.78-10.69-1.25-13.47,3.41-1.81,3.03-1.85,6.8-.12,9.87l-12.1,12.13c-4.68-2.8-10.75-1.28-13.55,3.4-2.8,4.68-1.28,10.75,3.4,13.55,4.68,2.8,10.75,1.28,13.55-3.4,1.87-3.12,1.87-7.01,0-10.13l12.02-12.04c3.11,1.97,7.07,2.02,10.24.12l13.16,13.19c-2.09,5.01.28,10.77,5.3,12.86,5.01,2.09,10.77-.28,12.86-5.3,1.2-2.88.96-6.15-.64-8.82l12.14-12.17c4.54,2.99,10.64,1.73,13.63-2.81,2.16-3.29,2.16-7.55-.01-10.84l13.28-13.31c4.37,3.21,10.51,2.26,13.72-2.11,1.24-1.69,1.91-3.74,1.9-5.84.02-5.43-4.37-9.85-9.8-9.87,0,0-.01,0-.02,0"/></g></g></svg>