<?xml version="1.0" encoding="UTF-8"?><svg id="Capa_1" xmlns="http://www.w3.org/2000/svg" xmlns:xlink="http://www.w3.org/1999/xlink" viewBox="0 0 192.28 104.36"><defs><style>.cls-1{clip-path:url(#clippath);}.cls-2,.cls-3{fill:none;}.cls-2,.cls-4{stroke-width:0px;}.cls-3{stroke:#fff;stroke-miterlimit:10;stroke-width:.97px;}.cls-4{fill:#fff;}</style><clipPath id="clippath"><rect class="cls-2" y=".22" width="192.28" height="103.93"/></clipPath></defs><g id="Grupo_31404"><g class="cls-1"><g id="Grupo_3"><path id="Trazado_5" class="cls-4" d="M70.97,53.2c-.16,3.77-1.21,7.44-3.08,10.72l-8.25-7.52c-1.04-1.06-2.46-1.66-3.94-1.65-2.96.04-5.33,2.45-5.32,5.41-.02,1.72.76,3.35,2.11,4.41l7.98,6.8c-3.37,1.96-7.2,2.97-11.09,2.93-12.75,0-21.83-10.27-21.83-22.74v-.19c0-12.47,8.9-22.65,21.65-22.65,12.01.05,21.74,9.77,21.81,21.79h11.83c-.75-18.53-16.38-32.94-34.91-32.19-17.87.72-32.04,15.34-32.21,33.22v.18c-.24,17.99,14.15,32.77,32.14,33.01h1.33c6.98.08,13.82-2.04,19.53-6.05l4.59,4.13c2.06,2.14,5.47,2.21,7.62.14,1.06-1.02,1.66-2.43,1.65-3.91.02-1.72-.76-3.35-2.11-4.41l-4.13-3.4c3.88-5.25,6.13-11.54,6.46-18.06l-11.83.02Z"/><path id="Trazado_6" class="cls-4" d="M146.12,66.86c-1.25,0-2.46.46-3.4,1.28-4.36,4.04-10.11,6.24-16.05,6.14-11.75,0-20.39-9.29-21.13-21.09h-11.85c.38,17.68,14.93,31.76,32.62,31.54,8.6.29,16.96-2.8,23.3-8.62,1.16-1.02,1.83-2.49,1.83-4.04-.07-2.89-2.43-5.2-5.32-5.23M126.68,28.71c5.64,0,11.08,2.06,15.31,5.78,2.46,1.88,5.97,1.4,7.85-1.05,1.88-2.46,1.4-5.97-1.05-7.85h0c-6.25-4.95-14.06-7.52-22.03-7.25-17.91-.36-32.73,13.87-33.08,31.79,0,0,0,0,0,0v.36h11.83c.4-12.15,9.25-21.78,21.17-21.78"/><path id="Trazado_7" class="cls-4" d="M70.99,50.5c.02.35.02.7.02,1.05v.19c0,.5-.01.99-.04,1.47h-18.79l-2.41,2.74s-.08.06-.13.06h-3.1c-.1,0-.18-.08-.17-.18h0s.02-.08.04-.11l3.54-4.04c.07-.07.07-.18,0-.24l-3.53-3.92c-.06-.07-.05-.18.02-.24.03-.03.07-.04.11-.04h3.1s.09.02.13.06l2.89,3.22h18.32Z"/><path id="Trazado_8" class="cls-4" d="M48.29,51.68l-3.75,4.27s-.08.06-.13.06h-3.1c-.1,0-.18-.08-.18-.17,0-.04.02-.09.04-.12l3.54-4.04c.07-.07.07-.17,0-.24,0,0,0,0,0,0l-3.53-3.93c-.06-.07-.05-.18.02-.24.03-.03.07-.04.11-.04h3.1s.09.02.13.06l3.74,4.17c.06.06.06.16,0,.22"/><path id="Trazado_9" class="cls-4" d="M93.65,51.73c0,.49,0,.98.03,1.47h-10.91c.03-.55.05-1.1.05-1.66v-1.05h10.85c-.01.34-.02.7-.02,1.05v.19Z"/><path id="Trazado_10" class="cls-4" d="M43.42,51.68l-3.75,4.27s-.08.06-.13.06h-3.11c-.1,0-.18-.08-.17-.18,0-.04.02-.08.04-.11l3.54-4.04c.07-.07.07-.18,0-.24l-3.53-3.93c-.06-.07-.05-.18.02-.24.03-.03.07-.04.11-.04h3.09s.1.02.13.06l3.74,4.17c.05.06.05.16,0,.22"/><path id="Trazado_11" class="cls-4" d="M191.93,52.33l-14.24,5.83c-.29.11-.62-.03-.73-.32-.06-.16-.05-.34.03-.49l2.39-4.14h-73.84c-.04-.55-.05-1.1-.05-1.66v-.18c0-.29,0-.58.01-.86h73.91c-.83-1.43-1.6-2.78-2.43-4.2-.15-.27-.06-.61.2-.76.15-.09.33-.1.5-.03,4.83,1.98,9.47,3.87,14.25,5.83.27.11.41.42.3.7-.06.14-.17.25-.31.3"/><path id="Trazado_12" class="cls-3" d="M163.87,48.27c.07-.95.1-1.91.1-2.88-.33-18.65-12.73-34.93-30.62-40.21-.2-.06-.38-.15-.55-.26-.42-.28-1.16-.85-1.16-1.46v-1.3c-.02-.86.63-1.59,1.49-1.67.88-.06,1.64.61,1.7,1.49v.65c0,.39.27.73.66.82,19.7,4.5,34.34,21.25,34.34,41.22,0,1.22-.06,2.42-.17,3.6"/><path id="Trazado_13" class="cls-4" d="M132.27,3.08c.68,0,1.24.56,1.24,1.24s-.56,1.24-1.24,1.24c-.68,0-1.24-.55-1.24-1.24,0-.69.56-1.24,1.24-1.24"/><path id="Trazado_14" class="cls-4" d="M167.19,29.1c.68,0,1.24.56,1.24,1.24s-.56,1.24-1.24,1.24c-.68,0-1.24-.55-1.24-1.24,0-.69.56-1.24,1.24-1.24"/><path id="Trazado_15" class="cls-4" d="M169.64,46.76c.68,0,1.24.56,1.24,1.24s-.56,1.24-1.24,1.24c-.68,0-1.24-.55-1.24-1.24,0-.69.56-1.24,1.24-1.24"/><path id="Trazado_16" class="cls-4" d="M152.82,10.17c.68,0,1.24.56,1.24,1.24,0,.68-.56,1.24-1.24,1.24-.68,0-1.24-.55-1.24-1.24,0-.69.56-1.24,1.24-1.24"/><path id="Trazado_17" class="cls-4" d="M155.3,19.01c.68,0,1.24.56,1.24,1.24s-.56,1.24-1.24,1.24c-.68,0-1.24-.55-1.24-1.24,0-.69.56-1.24,1.24-1.24"/><path id="Trazado_18" class="cls-4" d="M163.98,46.25c.92,0,1.66.75,1.66,1.66s-.75,1.66-1.66,1.66c-.92,0-1.66-.74-1.66-1.66s.74-1.66,1.66-1.66h0"/><path id="Trazado_19" class="cls-4" d="M163.1,20.19c.92,0,1.66.74,1.66,1.66s-.74,1.66-1.66,1.66c-.92,0-1.66-.74-1.66-1.66s.74-1.66,1.66-1.66h0"/><path id="Trazado_20" class="cls-4" d="M139.33,6.08c.92,0,1.66.74,1.66,1.66s-.74,1.66-1.66,1.66-1.66-.74-1.66-1.66.74-1.66,1.66-1.66h0"/><path id="Trazado_21" class="cls-4" d="M155.86,15.13c.68,0,1.24.56,1.24,1.24s-.56,1.24-1.24,1.24c-.68,0-1.24-.55-1.24-1.24,0-.68.55-1.24,1.24-1.24,0,0,0,0,0,0"/><path id="Trazado_22" class="cls-4" d="M166.3,38.86c.68,0,1.24.56,1.24,1.24s-.56,1.24-1.24,1.24c-.68,0-1.24-.55-1.24-1.24,0-.69.56-1.24,1.24-1.24"/><line id="Línea_2" class="cls-3" x1="167.15" y1="30.31" x2="156.06" y2="20.17"/><line id="Línea_3" class="cls-3" x1="167.37" y1="30.74" x2="166.19" y2="39.81"/><line id="Línea_4" class="cls-3" x1="163.85" y1="47.92" x2="166.41" y2="40.13"/><line id="Línea_5" class="cls-3" x1="166.41" y1="39.81" x2="170.14" y2="48.45"/><path id="Trazado_23" class="cls-4" d="M145.81,5.95c.68,0,1.24.56,1.24,1.24s-.56,1.24-1.24,1.24c-.68,0-1.24-.55-1.24-1.24,0-.69.56-1.24,1.24-1.24"/><path id="Trazado_24" class="cls-4" d="M162.77,28.26c.68,0,1.24.56,1.24,1.24s-.56,1.24-1.24,1.24c-.68,0-1.24-.55-1.24-1.24,0-.69.56-1.24,1.24-1.24"/><path id="Trazado_25" class="cls-4" d="M162.85,35.54c.68,0,1.24.56,1.24,1.24s-.56,1.24-1.24,1.24c-.68,0-1.24-.55-1.24-1.24,0-.69.56-1.24,1.24-1.24"/><line id="Línea_6" class="cls-3" x1="139.64" y1="7.56" x2="145.83" y2="7.35"/><line id="Línea_7" class="cls-3" x1="152.82" y1="11.56" x2="155.81" y2="16.47"/><line id="Línea_8" class="cls-3" x1="163.06" y1="22.07" x2="155.86" y2="16.52"/><line id="Línea_9" class="cls-3" x1="155.49" y1="20.2" x2="155.7" y2="16.58"/><line id="Línea_10" class="cls-3" x1="132.44" y1="4.41" x2="145.62" y2="6.92"/><line id="Línea_11" class="cls-3" x1="139.85" y1="7.93" x2="152.71" y2="11.56"/><line id="Línea_12" class="cls-3" x1="145.61" y1="7.61" x2="155.27" y2="19.78"/><line id="Línea_13" class="cls-3" x1="162.85" y1="29.28" x2="162.9" y2="36.32"/><line id="Línea_14" class="cls-3" x1="155.33" y1="20.2" x2="162.9" y2="21.96"/><line id="Línea_15" class="cls-3" x1="162.8" y1="29.6" x2="167.39" y2="30.34"/><line id="Línea_16" class="cls-3" x1="163.01" y1="21.96" x2="162.8" y2="29.49"/><line id="Línea_17" class="cls-3" x1="167.07" y1="30.24" x2="163.17" y2="36.43"/><line id="Línea_18" class="cls-3" x1="166.32" y1="40.16" x2="163.22" y2="37.06"/><path id="Trazado_26" class="cls-3" d="M163.87,56.09c.07.95.1,1.91.1,2.88-.33,18.65-12.73,34.93-30.62,40.21-.2.06-.38.15-.55.26-.42.28-1.16.85-1.16,1.46v1.31c-.01.86.64,1.58,1.49,1.67.88.06,1.64-.61,1.7-1.49v-.65c0-.39.27-.73.66-.82,19.7-4.5,34.34-21.25,34.34-41.22,0-1.22-.05-2.42-.17-3.6"/><path id="Trazado_27" class="cls-4" d="M132.27,98.81c.68,0,1.24.56,1.24,1.24s-.56,1.24-1.24,1.24c-.68,0-1.24-.55-1.24-1.24,0-.69.56-1.24,1.24-1.24"/><path id="Trazado_28" class="cls-4" d="M167.19,72.78c.68,0,1.24.56,1.24,1.24s-.56,1.24-1.24,1.24c-.68,0-1.24-.55-1.24-1.24,0-.69.56-1.24,1.24-1.24"/><path id="Trazado_29" class="cls-4" d="M169.58,54.66c.79,0,1.43.64,1.43,1.43,0,.79-.64,1.43-1.43,1.43-.79,0-1.43-.64-1.43-1.43,0-.79.64-1.43,1.43-1.43h0"/><path id="Trazado_30" class="cls-4" d="M152.82,91.71c.68,0,1.24.56,1.24,1.24s-.56,1.24-1.24,1.24c-.68,0-1.24-.55-1.24-1.24,0-.69.56-1.24,1.24-1.24"/><path id="Trazado_31" class="cls-4" d="M155.3,82.87c.68,0,1.24.56,1.24,1.24s-.56,1.24-1.24,1.24c-.68,0-1.24-.55-1.24-1.24,0-.69.56-1.24,1.24-1.24"/><path id="Trazado_32" class="cls-4" d="M163.68,55.38c.75,0,1.36.61,1.36,1.36s-.61,1.36-1.36,1.36c-.75,0-1.36-.61-1.36-1.36h0c0-.75.61-1.36,1.36-1.36"/><path id="Trazado_33" class="cls-4" d="M163.1,80.85c.92,0,1.66.74,1.66,1.66s-.74,1.66-1.66,1.66-1.66-.74-1.66-1.66.74-1.66,1.66-1.66h0"/><path id="Trazado_34" class="cls-4" d="M139.33,94.97c.92,0,1.66.74,1.66,1.66s-.74,1.66-1.66,1.66c-.92,0-1.66-.74-1.66-1.66s.74-1.66,1.66-1.66h0"/><path id="Trazado_35" class="cls-4" d="M155.86,86.75c.68,0,1.24.56,1.24,1.24,0,.69-.56,1.24-1.24,1.24-.68,0-1.24-.55-1.24-1.24,0-.68.55-1.24,1.24-1.24h0"/><path id="Trazado_36" class="cls-4" d="M166.3,63.02c.68,0,1.24.56,1.24,1.24s-.56,1.24-1.24,1.24c-.68,0-1.24-.55-1.24-1.24,0-.69.56-1.24,1.24-1.24"/><line id="Línea_19" class="cls-3" x1="167.15" y1="74.05" x2="156.06" y2="84.19"/><line id="Línea_20" class="cls-3" x1="167.37" y1="73.62" x2="166.19" y2="64.55"/><line id="Línea_21" class="cls-3" x1="163.85" y1="56.44" x2="166.41" y2="64.23"/><line id="Línea_22" class="cls-3" x1="166.41" y1="64.55" x2="170.14" y2="55.91"/><path id="Trazado_37" class="cls-4" d="M145.81,95.92c.68,0,1.24.56,1.24,1.24s-.56,1.24-1.24,1.24c-.68,0-1.24-.55-1.24-1.24,0-.69.56-1.24,1.24-1.24"/><path id="Trazado_38" class="cls-4" d="M162.77,73.61c.68,0,1.24.56,1.24,1.24s-.56,1.24-1.24,1.24c-.68,0-1.24-.55-1.24-1.24,0-.69.56-1.24,1.24-1.24"/><path id="Trazado_39" class="cls-4" d="M162.85,66.33c.68,0,1.24.56,1.24,1.24s-.56,1.24-1.24,1.24c-.68,0-1.24-.55-1.24-1.24,0-.69.56-1.24,1.24-1.24"/><line id="Línea_23" class="cls-3" x1="139.64" y1="96.8" x2="145.83" y2="97.01"/><line id="Línea_24" class="cls-3" x1="152.82" y1="92.8" x2="155.81" y2="87.89"/><line id="Línea_25" class="cls-3" x1="163.06" y1="82.29" x2="155.86" y2="87.84"/><line id="Línea_26" class="cls-3" x1="155.49" y1="84.15" x2="155.7" y2="87.78"/><line id="Línea_27" class="cls-3" x1="132.44" y1="99.95" x2="145.62" y2="97.44"/><line id="Línea_28" class="cls-3" x1="139.85" y1="96.43" x2="152.71" y2="92.8"/><line id="Línea_29" class="cls-3" x1="145.61" y1="96.75" x2="155.27" y2="84.58"/><line id="Línea_30" class="cls-3" x1="162.85" y1="75.08" x2="162.9" y2="68.04"/><line id="Línea_31" class="cls-3" x1="155.33" y1="84.15" x2="162.9" y2="82.39"/><line id="Línea_32" class="cls-3" x1="162.8" y1="74.76" x2="167.39" y2="74.02"/><line id="Línea_33" class="cls-3" x1="163.01" y1="82.39" x2="162.8" y2="74.87"/><line id="Línea_34" class="cls-3" x1="167.07" y1="74.12" x2="163.17" y2="67.93"/><line id="Línea_35" class="cls-3" x1="166.32" y1="64.2" x2="163.22" y2="67.29"/></g></g></g></svg>