<?xml version="1.0" encoding="UTF-8"?><svg id="Capa_1" xmlns="http://www.w3.org/2000/svg" xmlns:xlink="http://www.w3.org/1999/xlink" viewBox="0 0 196.25 87.17"><defs><style>.cls-1{clip-path:url(#clippath);}.cls-2{fill:none;}.cls-2,.cls-3{stroke-width:0px;}.cls-3{fill:#fff;}</style><clipPath id="clippath"><rect class="cls-2" width="196.25" height="87.17"/></clipPath></defs><g class="cls-1"><g id="Grupo_27311"><path id="Trazado_55" class="cls-3" d="M87.93,35.88c0,3.14-2.56,5.69-5.7,5.68-3.14,0-5.69-2.56-5.68-5.7,0-3.14,2.55-5.68,5.69-5.68,3.15,0,5.7,2.56,5.69,5.7h0"/><path id="Trazado_56" class="cls-3" d="M103.72,21.16c0,3.14-2.56,5.69-5.7,5.68-3.14,0-5.69-2.56-5.68-5.7,0-3.14,2.55-5.68,5.69-5.68,3.15,0,5.7,2.56,5.69,5.7h0"/><path id="Trazado_57" class="cls-3" d="M118.78,35.88c0,3.14-2.56,5.69-5.7,5.68-3.14,0-5.69-2.56-5.68-5.7,0-3.14,2.55-5.68,5.69-5.68,3.15,0,5.7,2.56,5.69,5.7h0"/><path id="Trazado_58" class="cls-3" d="M134.57,21.16c0,3.14-2.56,5.69-5.7,5.68-3.14,0-5.69-2.56-5.68-5.7,0-3.14,2.55-5.68,5.69-5.68,3.15,0,5.7,2.56,5.69,5.7h0"/><path id="Trazado_59" class="cls-3" d="M73.06,5.7c0,3.14-2.56,5.69-5.7,5.68-3.14,0-5.69-2.56-5.68-5.7C61.68,2.54,64.23,0,67.37,0c3.15,0,5.7,2.56,5.69,5.7h0"/><path id="Trazado_60" class="cls-3" d="M103.72,5.7c0,3.14-2.56,5.69-5.7,5.68-3.14,0-5.69-2.56-5.68-5.7,0-3.14,2.55-5.68,5.69-5.68,3.15,0,5.7,2.56,5.69,5.7h0"/><path id="Trazado_61" class="cls-3" d="M118.78,5.7c0,3.14-2.56,5.69-5.7,5.68-3.14,0-5.69-2.56-5.68-5.7,0-3.14,2.55-5.68,5.69-5.68,3.15,0,5.7,2.56,5.69,5.7h0"/><path id="Trazado_62" class="cls-3" d="M128.88,0c-3.15,0-5.69,2.55-5.69,5.7,0,.84.19,1.68.55,2.44l-7.97,7.99c-2.78-1.48-6.23-.42-7.71,2.36-.89,1.67-.89,3.68,0,5.35l-7.13,7.15c-2.04-1.22-4.62-1.04-6.47.45l-7.35-7.36c1.61-2.7.73-6.19-1.97-7.8-2.7-1.61-6.19-.73-7.8,1.97-1.05,1.75-1.07,3.94-.07,5.71l-7.01,7.02c-2.71-1.62-6.23-.74-7.85,1.97-1.62,2.71-.74,6.23,1.97,7.85,2.71,1.62,6.23.74,7.85-1.97,1.08-1.81,1.08-4.06,0-5.87l6.96-6.97c1.8,1.14,4.1,1.17,5.93.07l7.62,7.64c-1.21,2.9.16,6.24,3.07,7.45,2.9,1.21,6.24-.16,7.45-3.07.69-1.67.56-3.56-.37-5.11l7.03-7.05c2.63,1.73,6.16,1,7.89-1.63,1.25-1.9,1.25-4.37,0-6.28l7.69-7.71c2.53,1.86,6.09,1.31,7.94-1.22.72-.98,1.1-2.17,1.1-3.38C134.58,2.57,132.04.01,128.89,0c0,0,0,0,0,0"/><path id="Trazado_63" class="cls-3" d="M0,57.18c.02-1.56,1.29-2.81,2.85-2.79.02,0,.04,0,.06,0,1.55-.03,2.83,1.2,2.86,2.75,0,.01,0,.02,0,.04v26.89c0,1.55-1.27,2.8-2.82,2.79-.01,0-.02,0-.04,0-1.56.05-2.86-1.17-2.91-2.73,0-.02,0-.04,0-.06v-26.88Z"/><path id="Trazado_64" class="cls-3" d="M21.85,59.83h-7.97c-1.44.12-2.7-.95-2.82-2.39s.95-2.7,2.39-2.82c.14-.01.28-.01.43,0h21.81c1.44,0,2.61,1.17,2.61,2.61s-1.17,2.61-2.61,2.61h-8.02v24.23c-.08,1.61-1.44,2.84-3.05,2.77-1.5-.07-2.69-1.27-2.77-2.77v-24.23Z"/><path id="Trazado_65" class="cls-3" d="M54.24,57.18c.04-1.59,1.36-2.85,2.96-2.81,1.54.04,2.78,1.28,2.81,2.81v10.74h15.67v-10.74c.07-1.59,1.41-2.83,3.01-2.76,1.5.06,2.7,1.26,2.76,2.76v26.89c-.07,1.59-1.41,2.83-3.01,2.76-1.5-.06-2.7-1.26-2.76-2.76v-10.93h-15.68v10.93c-.04,1.59-1.36,2.85-2.96,2.81-1.54-.04-2.78-1.28-2.81-2.81l.02-26.88Z"/><path id="Trazado_66" class="cls-3" d="M99.82,87.17c-6.73.28-12.42-4.95-12.71-11.68-.01-.28-.01-.56,0-.85v-.09c-.25-6.69,4.97-12.31,11.65-12.57.15,0,.3,0,.45,0,6.38-.13,11.65,4.94,11.78,11.32,0,.19,0,.38,0,.57.02,1.44-1.13,2.63-2.58,2.65-.03,0-.06,0-.1,0h-15.52c.38,3.61,3.51,6.29,7.13,6.13,2.14.02,4.22-.73,5.86-2.1.41-.34.92-.52,1.45-.5,1.22-.03,2.23.94,2.25,2.16,0,.03,0,.06,0,.08-.01.64-.28,1.25-.75,1.69-2.46,2.16-5.64,3.3-8.91,3.2M105.46,72.86c-.37-3.57-2.53-6.36-6.28-6.36-3.47,0-5.91,2.61-6.43,6.36h12.7Z"/><path id="Trazado_67" class="cls-3" d="M114.41,79.67v-.09c0-5.21,4.17-7.77,10.23-7.77,2.26-.02,4.51.32,6.66,1.01v-.59c0-3.43-2.16-5.26-6.14-5.26-1.87-.02-3.73.3-5.49.96-.29.09-.59.13-.89.14-1.29.03-2.36-.99-2.39-2.28,0,0,0,0,0,0,.02-.98.64-1.84,1.55-2.19,2.55-.97,5.25-1.45,7.97-1.42,2.99-.23,5.94.74,8.21,2.7,1.89,2,2.86,4.7,2.67,7.45v11.89c0,1.48-1.21,2.66-2.69,2.65-.03,0-.05,0-.08,0-1.4.13-2.64-.9-2.76-2.3,0-.01,0-.02,0-.03v-.91c-2.02,2.34-4.98,3.63-8.07,3.52-4.64,0-8.77-2.61-8.77-7.45M131.39,77.93v-1.65c-1.8-.65-3.71-.98-5.63-.96-3.66,0-5.82,1.51-5.82,4.02v.09c0,2.33,2.11,3.66,4.83,3.66,3.75,0,6.61-2.1,6.61-5.17"/><path id="Trazado_68" class="cls-3" d="M143.16,55.76c0-1.52,1.25-2.75,2.77-2.74.01,0,.03,0,.04,0,1.55-.03,2.83,1.19,2.86,2.74,0,0,0,0,0,0v28.35c-.07,1.57-1.39,2.78-2.96,2.72-1.47-.06-2.65-1.24-2.72-2.72v-28.35Z"/><path id="Trazado_69" class="cls-3" d="M156.66,79.95v-12.71h-.94c-1.31,0-2.38-1.06-2.38-2.37s1.06-2.38,2.37-2.38h.95v-4.11c.07-1.57,1.39-2.78,2.96-2.72,1.47.06,2.65,1.24,2.72,2.72v4.11h4.45c1.31-.05,2.42.97,2.47,2.29.05,1.31-.97,2.42-2.29,2.47-.06,0-.12,0-.18,0h-4.45v11.84c-.21,1.46.8,2.81,2.26,3.02.26.04.53.04.79,0,.47-.02.94-.07,1.41-.14,1.26-.06,2.33.92,2.39,2.19.04,1-.56,1.9-1.5,2.25-1.25.44-2.57.65-3.89.64-4.17,0-7.13-1.78-7.13-7.09"/><path id="Trazado_70" class="cls-3" d="M174.02,55.76c0-1.52,1.25-2.75,2.77-2.74.01,0,.03,0,.04,0,1.54-.03,2.83,1.19,2.86,2.73,0,0,0,0,0,0v10.42c1.67-2.65,4.6-4.24,7.74-4.21,5.58,0,8.82,3.66,8.82,9.24v12.9c0,1.51-1.21,2.74-2.72,2.74-.03,0-.06,0-.1,0-1.53.05-2.81-1.15-2.86-2.68,0-.02,0-.04,0-.06v-11.2c0-3.75-1.92-5.9-5.3-5.9-3-.1-5.51,2.25-5.61,5.25,0,.25,0,.5.03.74v11.1c-.07,1.57-1.39,2.78-2.96,2.72-1.47-.06-2.65-1.24-2.72-2.72v-28.35Z"/></g></g></svg>