<svg xmlns="http://www.w3.org/2000/svg" xmlns:xlink="http://www.w3.org/1999/xlink" width="200" height="200" viewBox="0 0 200 200">
  <defs>
    <clipPath id="clip-Mesa_de_trabajo_4">
      <rect width="200" height="200"/>
    </clipPath>
  </defs>
  <g id="Mesa_de_trabajo_4" data-name="Mesa de trabajo – 4" clip-path="url(#clip-Mesa_de_trabajo_4)">
    <rect width="200" height="200" fill="#fff"/>
    <g id="_6e825bfcb4de12acaf1b3dfbcc60a9a5" data-name="6e825bfcb4de12acaf1b3dfbcc60a9a5" transform="translate(12.924 31.875)">
      <path id="Trazado_13113" data-name="Trazado 13113" d="M155.574,93.761H21.016a20.159,20.159,0,1,0,0,40.264H155.574a20.159,20.159,0,0,0,0-40.264ZM25.223,124.846A10.926,10.926,0,1,1,36.149,113.92,10.926,10.926,0,0,1,25.223,124.846Zm42.012,0A10.926,10.926,0,1,1,78.161,113.92,10.926,10.926,0,0,1,67.235,124.846Zm42.066,0a10.926,10.926,0,1,1,10.926-10.926A10.926,10.926,0,0,1,109.3,124.846Zm42.012,0a10.926,10.926,0,1,1,10.926-10.926A10.926,10.926,0,0,1,151.313,124.846ZM137.874,6.568a2.513,2.513,0,0,0-2.513-2.458h-30.7V28.476a2.458,2.458,0,0,1-1.2,2.021,2.24,2.24,0,0,1-1.038,0,1.912,1.912,0,0,1-1.257-.382L88.268,21.647l-13,8.686a2.131,2.131,0,0,1-1.257.382,2.24,2.24,0,0,1-1.038,0,2.3,2.3,0,0,1-1.093-2.24V4.11h-30.7a2.513,2.513,0,0,0-2.513,2.459V89.281h99.211ZM55.161,60.545H74.009a2.24,2.24,0,1,1,0,4.48H55.161a2.24,2.24,0,1,1,0-4.48Zm29.228,16.39H55.161a2.24,2.24,0,1,1,0-4.48H84.389a2.295,2.295,0,0,1,0,4.589Z" transform="translate(0)" fill="#6b4b8b"/>
      <path id="Trazado_13114" data-name="Trazado 13114" d="M25.819,16.675a2.622,2.622,0,0,1,1.257.382L38,24.269V4.11H13.8V24.269l10.926-7.211A2.622,2.622,0,0,1,25.819,16.675Z" transform="translate(62.449)" fill="#6b4b8b"/>
    </g>
  </g>
</svg>
