<?xml version="1.0" encoding="UTF-8"?><svg id="Capa_1" xmlns="http://www.w3.org/2000/svg" viewBox="0 0 161.48 193.31"><defs><style>.cls-1{fill:#fff;stroke-width:0px;}</style></defs><g id="_5"><g id="Grupo_27335"><g id="Grupo_27334"><path id="Trazado_115" class="cls-1" d="M52.29,164.27l-6.76-48.31h-9.61V43.49l9.61-4.8L35.86,0h-19.32L6.93,38.65l9.61,4.8v72.5H6.93L.15,164.27c-1.55,14.41,8.88,27.35,23.29,28.89,14.41,1.55,27.35-8.88,28.89-23.29.2-1.86.2-3.74,0-5.61h-.05Z"/></g></g><g id="Grupo_27337"><g id="Grupo_27336"><path id="Trazado_116" class="cls-1" d="M142.15,126.58v-59.9c11.78-6.79,19.12-19.27,19.32-32.86.06-13.91-7.31-26.8-19.32-33.82v33.82l-19.32,9.61-19.32-9.61V0c-12.02,7.01-19.38,19.9-19.32,33.82-.29,13.73,7.19,26.44,19.32,32.86v59.9c-18.41,10.56-24.78,34.04-14.22,52.46,3.39,5.92,8.3,10.83,14.22,14.22v-33.82l19.32-9.61,19.32,9.61v33.82c12.02-7.01,19.38-19.9,19.32-33.82-.62-13.47-7.85-25.77-19.32-32.86Z"/></g></g></g></svg>