<svg xmlns="http://www.w3.org/2000/svg" xmlns:xlink="http://www.w3.org/1999/xlink" width="200" height="200" viewBox="0 0 200 200">
  <defs>
    <clipPath id="clip-Mesa_de_trabajo_6">
      <rect width="200" height="200"/>
    </clipPath>
  </defs>
  <g id="Mesa_de_trabajo_6" data-name="Mesa de trabajo – 6" clip-path="url(#clip-Mesa_de_trabajo_6)">
    <rect width="200" height="200" fill="#fff"/>
    <path id="_45_Data_Scientist_Analysis_Computer_Data_Scientist_Statistics" data-name="45  Data Scientist, Analysis, Computer, Data, Scientist, Statistics" d="M31.117,103.911H23.838V12.92A10.919,10.919,0,0,1,34.757,2h83.712V9.28H34.757a3.64,3.64,0,0,0-3.64,3.64Zm94.631,47.315a3.64,3.64,0,0,1-3.64,3.64H34.757a3.64,3.64,0,0,1-3.64-3.64v-7.279H23.838v7.279a10.919,10.919,0,0,0,10.919,10.919h87.351a10.919,10.919,0,0,0,10.919-10.919V118.469h-7.279ZM31.117,111.19a3.64,3.64,0,0,0-3.64-3.64H12.919a3.64,3.64,0,0,0-3.64,3.64v18.2H31.117ZM42.036,89.352a3.64,3.64,0,0,0-3.64,3.64v36.4H60.234v-36.4a3.64,3.64,0,0,0-3.64-3.64ZM89.351,111.19a3.64,3.64,0,0,0-3.64-3.64H71.153a3.64,3.64,0,0,0-3.64,3.64v18.2H89.351Zm7.279,21.838H2v7.279H96.631ZM89.351,20.2a3.64,3.64,0,0,0-3.64-3.64H42.036A3.64,3.64,0,0,0,38.4,20.2V34.758a3.64,3.64,0,0,0,3.64,3.64H85.712a3.64,3.64,0,0,0,3.64-3.64ZM78.432,45.677H38.4v7.279H78.432ZM38.4,67.514H78.432V60.235H38.4Zm40.036,7.279H38.4v7.279H78.432Zm61.874-18.2V49.316h3.64V42.037H114.829v7.279h3.64V56.6Zm2.075,7.279H116.394L96.958,106.022a3.565,3.565,0,0,0,3.312,5.168H158.5a3.721,3.721,0,0,0,3.312-5.314Zm-23.912-36.4A10.919,10.919,0,0,1,126,17.106,18.2,18.2,0,1,1,143.946,38.4a17.689,17.689,0,0,1-8.262-2.038,10.876,10.876,0,0,1-17.215-8.881Zm21.838-3.64h7.279V16.56h-7.279Z" transform="translate(17.912 17.927)" fill="#6b4b8b"/>
  </g>
</svg>
