<svg xmlns="http://www.w3.org/2000/svg" width="137.131" height="152.368" viewBox="0 0 137.131 152.368">
  <g id="Glyph" transform="translate(-5 -2)">
    <path id="Trazado_13197" data-name="Trazado 13197" d="M137.052,2H91.342a5.094,5.094,0,0,0-5.079,5.079v12.7a5.094,5.094,0,0,0,5.079,5.079h2.539v109.2a20.316,20.316,0,0,0,40.632,0V24.855h2.539a5.094,5.094,0,0,0,5.079-5.079V7.079A5.094,5.094,0,0,0,137.053,2ZM116.737,14.7a2.539,2.539,0,1,1,5.079,0v5.079h-5.079Zm-10.158,0a2.539,2.539,0,0,1,5.079,0v5.079h-5.079Zm-10.158,0a2.539,2.539,0,0,1,5.079,0v5.079H96.421Zm33.013,119.355a15.237,15.237,0,0,1-30.474,0V45.171h30.474Zm0-104.118H98.96V24.855h30.474Zm2.539-10.158h-5.079V14.7a2.539,2.539,0,1,1,5.079,0ZM76.105,146.75V83.263a5.094,5.094,0,0,0,5.079-5.079v-12.7a5.094,5.094,0,0,0-5.079-5.079H10.079A5.094,5.094,0,0,0,5,65.487v12.7a5.094,5.094,0,0,0,5.079,5.079V146.75a7.641,7.641,0,0,0,7.618,7.618H68.487a7.641,7.641,0,0,0,7.618-7.618ZM65.947,73.105a2.539,2.539,0,0,1,5.079,0v5.079H65.947Zm-10.158,0a2.539,2.539,0,0,1,5.079,0v5.079H55.789Zm-10.158,0a2.539,2.539,0,0,1,5.079,0v5.079H45.632Zm-10.158,0a2.539,2.539,0,0,1,5.079,0v5.079H35.474Zm-10.158,0a2.539,2.539,0,1,1,5.079,0v5.079H25.316Zm-10.158,0a2.539,2.539,0,0,1,5.079,0v5.079H15.158Zm0,10.158H71.026v5.079H15.158Zm0,63.487V103.579H71.026V146.75a2.539,2.539,0,0,1-2.539,2.539H17.7A2.539,2.539,0,0,1,15.158,146.75Z" fill="currentColor"/>
    <path id="Trazado_13198" data-name="Trazado 13198" d="M54.476,75.892c-11.428-1.346-14.831,1.346-18.767,4.444-5.917,4.546-15.084,10.107-20.951,6.73A2.539,2.539,0,0,0,11,89.3v16.71a5.094,5.094,0,0,0,5.079,5.079H51.632a5.094,5.094,0,0,0,5.079-5.079v-27.6A2.539,2.539,0,0,0,54.476,75.892Zm50.485,35.2a10.158,10.158,0,0,0,10.158-10.158V27.287c-.1-2.311-3.047-3.758-4.85-3.758-4.6-.406-8.05,8.1-12.139,6.425A2.555,2.555,0,0,0,94.8,32.366v68.566A10.158,10.158,0,0,0,104.96,111.09Z" transform="translate(9.237 33.121)" fill="currentColor"/>
  </g>
</svg>
