<?xml version="1.0" encoding="UTF-8"?><svg id="Capa_1" xmlns="http://www.w3.org/2000/svg" viewBox="0 0 187.23 187.23"><defs><style>.cls-1{fill:#fff;stroke-width:0px;}</style></defs><g id="Grupo_27347"><g id="Grupo_27346"><path id="Trazado_118" class="cls-1" d="M177.87,0H9.36C4.34.34.34,4.34,0,9.36v131.06c0,5.17,4.19,9.36,9.36,9.36h65.53v18.72h-18.72c-5.17,0-9.37,4.18-9.37,9.35s4.18,9.37,9.35,9.37h74.91c5.17,0,9.36-4.19,9.36-9.36s-4.19-9.36-9.36-9.36h-18.72v-18.72h65.53c5.17,0,9.36-4.19,9.36-9.36V9.36C187.23,4.19,183.04,0,177.87,0h0ZM168.51,112.34H18.72V18.72h149.79v93.62Z"/></g></g><g id="Grupo_27349"><g id="Grupo_27348"><path id="Trazado_119" class="cls-1" d="M156.34,41.19c-3.17-3.86-8.87-4.43-12.73-1.26-.13.11-.25.21-.38.33l-37.45,31.83-24.34-22.47c-3.44-3.62-9.17-3.76-12.79-.32-.11.1-.21.21-.32.32l-28.08,28.08c-3.65,3.58-3.71,9.45-.13,13.11s9.45,3.71,13.11.13c.04-.04.09-.09.13-.13l21.53-21.53,24.34,21.53c3.25,3.31,8.45,3.71,12.17.94l44-37.45c3.86-3.17,4.43-8.87,1.26-12.73-.11-.13-.21-.25-.33-.38Z"/></g></g></svg>