<svg id="_2a9827ad80196178919081000267a32c" data-name="2a9827ad80196178919081000267a32c" xmlns="http://www.w3.org/2000/svg" width="382.83" height="338.165" viewBox="0 0 382.83 338.165">
  <path id="Trazado_13207" data-name="Trazado 13207" d="M384.83,311.262a31.914,31.914,0,0,1-31.9,31.9H33.9A31.914,31.914,0,0,1,2,311.262,12.8,12.8,0,0,1,14.761,298.5h127.61a6.589,6.589,0,0,1,4.53,1.85l4.466,4.53h84.095l4.466-4.53a6.589,6.589,0,0,1,4.53-1.85h127.61a12.8,12.8,0,0,1,12.761,12.761ZM40.283,285.741a6.38,6.38,0,0,1-6.38-6.38V107.088A25.547,25.547,0,0,1,59.424,81.566H65.8a6.38,6.38,0,1,1,0,12.761h-6.38a12.778,12.778,0,0,0-12.761,12.761V279.36A6.381,6.381,0,0,1,40.283,285.741Zm306.264,0a6.38,6.38,0,0,1-6.38-6.38V107.088a12.778,12.778,0,0,0-12.761-12.761h-6.381a6.38,6.38,0,1,1,0-12.761h6.38a25.547,25.547,0,0,1,25.522,25.522V279.36A6.38,6.38,0,0,1,346.547,285.741ZM193.415,62.425a76.565,76.565,0,1,0,76.566,76.565A76.566,76.566,0,0,0,193.415,62.425Zm0,25.522a25.522,25.522,0,1,1-25.522,25.522A25.522,25.522,0,0,1,193.415,87.946ZM231.7,189.97a57.025,57.025,0,0,1-12.633,7.4,63.366,63.366,0,0,1-51.3,0,57.02,57.02,0,0,1-12.633-7.4v-7.593a30.634,30.634,0,0,1,30.626-30.626h15.313A30.634,30.634,0,0,1,231.7,182.377ZM212.556,24.142a19.11,19.11,0,0,1-37.135,6.38h-2.233A37.187,37.187,0,0,0,146.9,41.433a6.407,6.407,0,1,1-9.06-9.06,50.582,50.582,0,0,1,35.348-14.611h2.233a19.11,19.11,0,0,1,37.135,6.38Zm36.433,221.465a50.582,50.582,0,0,1-35.348,14.611h-2.233a19.141,19.141,0,1,1,0-12.761h2.233a37.188,37.188,0,0,0,26.288-10.911,6.407,6.407,0,1,1,9.06,9.06ZM288.165,71.294a19.142,19.142,0,0,1-30.818-21.757L255.816,48a37.412,37.412,0,0,0-26.288-10.911,6.38,6.38,0,1,1,0-12.761,50.319,50.319,0,0,1,35.284,14.611l1.6,1.6a18.543,18.543,0,0,1,8.231-1.914,19.141,19.141,0,0,1,13.527,32.668ZM163.682,247.266a6.358,6.358,0,0,1-6.38,6.38,50.318,50.318,0,0,1-35.284-14.611l-1.6-1.6a18.745,18.745,0,0,1-8.231,1.914,19.127,19.127,0,1,1,17.291-10.911l1.531,1.531A37.412,37.412,0,0,0,157.3,240.886a6.358,6.358,0,0,1,6.38,6.38Zm-32.349-189.5a19.17,19.17,0,0,1-19.142,19.141,19.383,19.383,0,0,1-8.231-1.85l-1.531,1.531a37.411,37.411,0,0,0-10.911,26.287,6.38,6.38,0,0,1-12.761,0A50.318,50.318,0,0,1,93.369,67.593l1.6-1.6a19.115,19.115,0,1,1,36.369-8.231ZM291.866,211.982a18.543,18.543,0,0,1,1.914,8.231,19.134,19.134,0,1,1-32.668-13.527,19.55,19.55,0,0,1,21.694-3.7l1.6-1.6A37.411,37.411,0,0,0,295.311,175.1a6.38,6.38,0,1,1,12.761,0,50.318,50.318,0,0,1-14.611,35.284Z" transform="translate(-2 -5)" fill="#fff"/>
  <path id="Trazado_13208" data-name="Trazado 13208" d="M290.647,68.611c.029,8.752-7.582,16.126-17.68,17.132s-19.462-4.678-21.755-13.2,3.218-17.175,12.8-20.092V50.439c-.007-8.861-4.1-17.356-11.385-23.618a5.209,5.209,0,0,1,0-8.14,7.471,7.471,0,0,1,9.455,0c9.714,8.46,15.189,19.862,15.247,31.758v2.006C285.291,54.87,290.622,61.341,290.647,68.611ZM49.02,118.541a7.552,7.552,0,0,1-9.455,0c-9.714-8.46-15.189-19.862-15.247-31.758V84.777C15.146,81.985,9.644,73.91,11.289,65.655s9.959-14.289,19.687-14.289S49.018,57.4,50.663,65.655s-3.857,16.33-13.029,19.122v2.006c.007,8.861,4.1,17.356,11.386,23.618a5.227,5.227,0,0,1,0,8.14Z" transform="translate(40.591 63.543)" fill="#fff"/>
</svg>
