<svg xmlns="http://www.w3.org/2000/svg" width="172.701" height="211.159" viewBox="0 0 172.701 211.159">
  <path id="_933d4810da1b77fa8f5b2498be64f1dc" data-name="933d4810da1b77fa8f5b2498be64f1dc" d="M302.634,101.129a2.034,2.034,0,0,0-.339-1.4c-.023-.023-.046-.068-.068-.09s-.045-.068-.068-.09-.045-.068-.068-.09l-.068-.068a.022.022,0,0,0-.023-.023l-6.622-6.622q-7.661-7.7-15.346-15.346-8.645-8.645-17.244-17.267l-12.34-12.34c-.723-.723-1.424-1.492-2.192-2.192-.881-.814-1.853-.678-2.915-.678H147.368c-3.8,0-7.616-.339-11.074,1.582a12.645,12.645,0,0,0-6.328,10.916V242.473c0,.384-.023.746,0,1.13A12.527,12.527,0,0,0,140.837,255.9a49.583,49.583,0,0,0,6.35.113H285.978c2.622,0,5.515.249,8.023-.588a12.636,12.636,0,0,0,8.656-11.865V101.129ZM268.552,216.46H164.047a4.52,4.52,0,1,1,0-9.04H171.1V165.2a8.79,8.79,0,0,1,.43-3.91c1.4-2.78,4.859-2.238,7.435-2.238h9.56c.972,0,1.966.023,2.938.045a1.947,1.947,0,0,1,.361.023c.068,0,.136.023.2.023s.136.023.2.023c.045,0,.091.023.136.023a1.88,1.88,0,0,1,.339.09h.023a4.067,4.067,0,0,1,.475.181,4.012,4.012,0,0,1,2.26,2.757,3.142,3.142,0,0,1,.2.7c0,.045.023.068.023.09v.023a.844.844,0,0,0,.023.226c0,.023-.023.045-.023.068V207.4h9.266v-.249c0-.384.045-.791.045-1.175,0-.407.023-.814.023-1.221.023-1.22.068-2.441.091-3.639,0-.339.023-.7.023-1.04,0-.294,0-.565.023-.859V138.171c0-.565-.045-1.107-.045-1.672a5.928,5.928,0,0,1,.045-.633c.023-.136.045-.249.068-.362l.136-.475c.022-.045.045-.113.068-.158l.068-.136.2-.407c.023-.023.023-.068.045-.09a1.385,1.385,0,0,1,.158-.226,3.928,3.928,0,0,1,2.735-1.6c.113-.023.249-.023.384-.045.407-.023.836-.045,1.243-.045h.294c2.283-.045,4.565.023,6.848.068h7.255c.339,0,.655-.045.995-.023a4.024,4.024,0,0,1,1.2.226c.022,0,.068.023.09.023a3.212,3.212,0,0,1,.791.384,2.416,2.416,0,0,1,.249.181c.09.068.158.136.249.2l.113.113.113.113a4.158,4.158,0,0,1,.384.5c.023.045.068.09.09.136a2.551,2.551,0,0,1,.226.429,1.077,1.077,0,0,1,.068.158,2.931,2.931,0,0,1,.2.633c.023.068.045.158.068.226.023.045.023.113.046.158a2.5,2.5,0,0,1,.045.429V207.42h9.583c0-2.893.135-5.786.135-8.679V148.455a5.963,5.963,0,0,1,.113-1.672c.61-2.215,2.577-2.87,4.611-2.87h15.21a4.616,4.616,0,0,1,3.345,1.22c.113.113.226.249.339.384a3.344,3.344,0,0,1,.407.678,8.089,8.089,0,0,1,.294.791,2.282,2.282,0,0,1,.113.565V207.42h4.791a4.609,4.609,0,0,1,4.52,4.52A4.559,4.559,0,0,1,268.552,216.46ZM257.32,98.711h-2.983c-.181,0-.384-.023-.565-.023-.271-.068-.542-.113-.814-.181-.226-.068-1.22-.271-.588-.181.068,0,.136.023.181.023a1.746,1.746,0,0,1-.316-.113c-.226-.113-.43-.226-.655-.362l-.339-.226c-.045-.068-.61-.52-.723-.61-.045-.045-.249-.226-.43-.407A.473.473,0,0,0,250,96.5l-.068-.136c-.091-.113-.158-.249-.249-.362-.045-.068-.226-.362-.362-.61a1.083,1.083,0,0,1-.068-.2,1.8,1.8,0,0,0-.113-.316c-.023-.045-.023-.068-.045-.113-.09-.271,0-.542-.226-.814v-.294a1.9,1.9,0,0,1-.045-.226,1.02,1.02,0,0,0,.045.181c0-.158-.023-.294-.023-.384,0-.384,0-.746.023-1.13V69.556c0-3.051.045-6.1.068-9.153l10.487,10.487,27.821,27.821Z" transform="translate(-129.955 -44.898)" fill="#fff"/>
</svg>
