<svg id="ee55c83b867fd6377d1193cae42492f3" xmlns="http://www.w3.org/2000/svg" width="315.408" height="315.382" viewBox="0 0 315.408 315.382">
  <path id="Trazado_13221" data-name="Trazado 13221" d="M286.6,153.107H149.814V16.348a3.662,3.662,0,0,0-3.663-3.688,144.135,144.135,0,1,0,144.11,144.118,3.662,3.662,0,0,0-3.663-3.671ZM146.151,293.6a136.784,136.784,0,1,1-3.663-273.543V156.769a3.637,3.637,0,0,0,3.663,3.663H282.885A136.988,136.988,0,0,1,146.151,293.6Z" transform="translate(-1.99 14.453)" fill="#fff"/>
  <path id="Trazado_13222" data-name="Trazado 13222" d="M71.578,2A3.688,3.688,0,0,0,67.89,5.663V146.084a3.662,3.662,0,0,0,3.688,3.662H212a3.637,3.637,0,0,0,3.688-3.663A144.262,144.262,0,0,0,71.578,2Z" transform="translate(99.721 -2)" fill="#fff"/>
</svg>
