<svg xmlns="http://www.w3.org/2000/svg" width="525.999" height="523.464" viewBox="0 0 525.999 523.464">
  <g id="cbd08995b031903f82b56df2d8d51f60" transform="translate(0.15)">
    <path id="Trazado_13199" data-name="Trazado 13199" d="M135.74,121.3c.082-.981.082-2.045.082-3.108,0-28.136-24.783-51.038-55.291-51.038S25.24,90.057,25.24,118.193c0,1.063,0,2.045.082,3.108a7.23,7.23,0,0,0,7.2,6.707h96.1A7.154,7.154,0,0,0,135.74,121.3ZM80.531,63.475A28.422,28.422,0,1,0,52.067,35.093,28.467,28.467,0,0,0,80.531,63.475Z" transform="translate(182.278 47.598)" fill="currenteColor"/>
    <path id="Trazado_13200" data-name="Trazado 13200" d="M410.932,293.63a114.2,114.2,0,0,0-42.368,8.1h0L323.5,212.412a114.851,114.851,0,1,0-121.378.082l-44.985,89.234a112.575,112.575,0,0,0-42.368-8.1A115.07,115.07,0,0,0-.15,408.547c-.082,63.388,51.528,114.917,114.835,114.917A115.007,115.007,0,0,0,229.111,418.771h67.314A114.939,114.939,0,1,0,410.932,293.63ZM168.422,114.917A94.361,94.361,0,1,1,262.727,209.3,92.933,92.933,0,0,1,220.2,199.161,94.578,94.578,0,0,1,168.422,114.917ZM114.685,502.934a94.387,94.387,0,0,1,0-188.774A93.436,93.436,0,0,1,157.216,324.3a94.377,94.377,0,0,1-42.531,178.632Zm181.74-104.693H229.111a114.987,114.987,0,0,0-53.737-87.271l44.985-89.234a115.648,115.648,0,0,0,84.817-.082h0l44.985,89.234a115.5,115.5,0,0,0-53.737,87.353ZM410.932,502.934a94.493,94.493,0,0,1-94.387-94.223v-.327A94.659,94.659,0,0,1,368.4,324.22h0a94.412,94.412,0,1,1,42.531,178.714Z" transform="translate(0)" fill="currenteColor"/>
    <path id="Trazado_13201" data-name="Trazado 13201" d="M111.834,51.452h-84.9A20.857,20.857,0,0,0,6.16,72.227v46.212c0,9.406,7.607,16.767,16.195,19.63l.9,14.477a7.37,7.37,0,0,0,5.071,6.625,5.8,5.8,0,0,0,2.372.409,7.406,7.406,0,0,0,5.562-2.535l15.377-17.83h60.117a20.8,20.8,0,0,0,20.775-20.775V72.227A20.734,20.734,0,0,0,111.834,51.452ZM32.415,85.968a7.418,7.418,0,0,1,7.443-7.443H98.911a7.443,7.443,0,0,1,0,14.886H39.858A7.47,7.47,0,0,1,32.415,85.968Zm67.478,27.809H42.312a7.443,7.443,0,0,1,0-14.886H99.893a7.443,7.443,0,1,1,0,14.886ZM414.87,95.292l-1.718-5.316a50.591,50.591,0,0,0-2.944-7.116l-2.536-4.989a5.819,5.819,0,0,1,.982-6.707l5.971-6.052-8.833-8.834-6.053,6.053a5.509,5.509,0,0,1-3.926,1.636,6.248,6.248,0,0,1-2.7-.654l-4.989-2.536a50.416,50.416,0,0,0-7.034-2.863l-5.4-1.8a5.751,5.751,0,0,1-3.926-5.48V42.21H359.334v8.424a5.8,5.8,0,0,1-4.008,5.48l-5.316,1.8a56.116,56.116,0,0,0-7.116,2.863L337.9,63.312a6.248,6.248,0,0,1-2.7.654,5.559,5.559,0,0,1-4.008-1.636l-5.971-5.971-8.833,8.833,5.971,5.971a5.973,5.973,0,0,1,1.063,6.707l-2.536,5.071a41.082,41.082,0,0,0-2.781,6.952l-1.8,5.48a5.751,5.751,0,0,1-5.48,3.926h-8.424v12.432h8.424a5.8,5.8,0,0,1,5.48,4.008l1.8,5.317a42.473,42.473,0,0,0,2.863,7.034l2.536,5.071a5.694,5.694,0,0,1-.981,6.625l-6.053,5.889,8.833,8.833,5.971-5.971a5.748,5.748,0,0,1,4.09-1.636,7.161,7.161,0,0,1,2.617.573l4.989,2.536a45.357,45.357,0,0,0,7.034,2.945l5.4,1.718a5.874,5.874,0,0,1,4.008,5.48v8.506h12.432v-8.506a5.91,5.91,0,0,1,3.926-5.48l5.48-1.718a37.76,37.76,0,0,0,6.952-2.945l4.989-2.536a5.9,5.9,0,0,1,2.617-.654,5.629,5.629,0,0,1,4.09,1.718l5.971,5.889,8.833-8.833-5.971-5.889A6,6,0,0,1,407.673,133l2.536-5.071a52.24,52.24,0,0,0,2.944-7.034l1.718-5.4a5.874,5.874,0,0,1,5.48-4.008h8.424V99.055H420.35A5.354,5.354,0,0,1,414.87,95.292Zm-26.746,32.8a31.809,31.809,0,1,1-22.493-54.309,31.208,31.208,0,0,1,22.493,9.324A31.94,31.94,0,0,1,388.125,128.091Z" transform="translate(45.3 303.031)" fill="currenteColor"/>
    <path id="Trazado_13202" data-name="Trazado 13202" d="M65.832,47.77a18.018,18.018,0,0,0-12.678,5.153A17.557,17.557,0,0,0,47.92,65.6,17.871,17.871,0,1,0,78.428,53,17.431,17.431,0,0,0,65.832,47.77Z" transform="translate(345.1 342.946)" fill="currenteColor"/>
  </g>
</svg>
