<svg xmlns="http://www.w3.org/2000/svg" width="739" height="446" viewBox="0 0 739 446">
  <g id="Grupo_36608" data-name="Grupo 36608" transform="translate(-947.748 -692.278)" opacity="0.5">
    <g id="Grupo_36531" data-name="Grupo 36531" transform="translate(948 1046.333)">
      <text id="Seleccione_una_opción" data-name="Seleccione una opción" transform="translate(-0.252 71.946)" fill="#a3a2a2" font-size="67" font-family="OpenSans-Bold, Open Sans" font-weight="700"><tspan x="0" y="0">Seleccione una opción</tspan></text>
    </g>
    <g id="Grupo_36532" data-name="Grupo 36532" transform="translate(1156.716 692)">
      <g id="Elipse_1270" data-name="Elipse 1270" transform="translate(0.032 0.278)" fill="none" stroke="#a3a2a2" stroke-width="1">
        <circle cx="145.5" cy="145.5" r="145.5" stroke="none"/>
        <circle cx="145.5" cy="145.5" r="145" fill="none"/>
      </g>
      <path id="_63dbd8c2c0e58601d636d5135b2cc684" data-name="63dbd8c2c0e58601d636d5135b2cc684" d="M183.121,105.447,86.834,75.887a9.645,9.645,0,0,0-11.94,12.132L105.8,183.15a9.629,9.629,0,0,0,8.473,6.547h.77a9.629,9.629,0,0,0,8.569-5.392l20.22-40.826,41.211-20.22a9.629,9.629,0,0,0-1.541-17.813ZM43.313,29.669A9.668,9.668,0,0,0,29.64,43.342L56.215,69.82A9.533,9.533,0,0,0,69.5,56.148Zm5.1,71.252A9.659,9.659,0,0,0,50.246,81.76L12.79,75.887a9.629,9.629,0,0,0-2.7,19.065l37.07,5.873Zm.481,13.288L15.486,131.155a9.629,9.629,0,0,0,4.333,18.2,8.762,8.762,0,0,0,4.333-1.059L57.66,131.348A9.629,9.629,0,1,0,48.9,114.209Zm69.808-51.9a10.3,10.3,0,0,0,4.429,1.059,9.629,9.629,0,0,0,8.569-5.3l17.043-33.315a9.691,9.691,0,0,0-17.139-9.051l-17.043,33.6a9.629,9.629,0,0,0,4.14,13ZM91.552,58.266h1.541a9.629,9.629,0,0,0,7.992-11.073L95.211,10.219A9.751,9.751,0,0,0,75.954,13.3L82.02,50.082A9.629,9.629,0,0,0,91.552,58.266Z" transform="translate(50.209 50.195)" fill="#a3a2a2"/>
    </g>
  </g>
</svg>
