<svg xmlns="http://www.w3.org/2000/svg" width="127.63" height="156.05" viewBox="0 0 127.63 156.05">
  <path id="_933d4810da1b77fa8f5b2498be64f1dc" data-name="933d4810da1b77fa8f5b2498be64f1dc" d="M257.568,86.454a1.5,1.5,0,0,0-.251-1.036c-.017-.017-.033-.05-.05-.067s-.033-.05-.05-.067-.033-.05-.05-.067l-.05-.05a.016.016,0,0,0-.017-.017l-4.894-4.894q-5.662-5.687-11.341-11.341-6.388-6.389-12.744-12.761L219,47.036c-.535-.534-1.052-1.1-1.62-1.62a2.764,2.764,0,0,0-2.155-.5h-72.4c-2.806,0-5.629-.251-8.184,1.169a9.345,9.345,0,0,0-4.677,8.067V190.91c0,.284-.017.551,0,.835A9.258,9.258,0,0,0,138,200.831a36.621,36.621,0,0,0,4.693.084H245.259c1.937,0,4.075.184,5.929-.434a9.339,9.339,0,0,0,6.4-8.769V86.454Zm-25.187,85.232H155.15a3.34,3.34,0,0,1,0-6.681h5.211V133.8a6.5,6.5,0,0,1,.317-2.889c1.035-2.054,3.591-1.654,5.495-1.654h7.065c.718,0,1.453.017,2.171.033a1.438,1.438,0,0,1,.267.017c.05,0,.1.017.15.017s.1.017.15.017c.033,0,.067.017.1.017a1.386,1.386,0,0,1,.251.067h.017a3,3,0,0,1,.351.134,2.966,2.966,0,0,1,1.67,2.038,2.349,2.349,0,0,1,.15.518c0,.033.017.05.017.067v.017a.623.623,0,0,0,.017.167c0,.017-.017.033-.017.05v32.569h6.848V164.8c0-.284.033-.585.033-.869,0-.3.017-.6.017-.9.017-.9.05-1.8.067-2.689,0-.251.017-.518.017-.768,0-.217,0-.418.017-.635V113.829c0-.418-.033-.818-.033-1.236a4.363,4.363,0,0,1,.033-.468c.017-.1.033-.184.05-.267l.1-.351c.017-.033.033-.083.05-.117l.05-.1.15-.3c.017-.017.017-.05.033-.067a1.018,1.018,0,0,1,.117-.167,2.9,2.9,0,0,1,2.021-1.186c.084-.017.184-.017.284-.033.3-.017.618-.033.919-.033h.217c1.687-.033,3.374.017,5.061.05h5.362c.251,0,.484-.033.735-.017a2.974,2.974,0,0,1,.885.167c.017,0,.05.017.067.017a2.369,2.369,0,0,1,.585.284,1.774,1.774,0,0,1,.184.134c.067.05.117.1.184.15l.083.084.084.083a3.077,3.077,0,0,1,.284.367c.017.033.05.067.067.1a1.888,1.888,0,0,1,.167.317.816.816,0,0,1,.05.117,2.18,2.18,0,0,1,.15.468c.017.05.034.117.05.167.017.033.017.084.033.117a1.86,1.86,0,0,1,.033.317V165h7.082c0-2.138.1-4.276.1-6.414V121.428a4.4,4.4,0,0,1,.084-1.236c.451-1.637,1.9-2.121,3.407-2.121H225.5a3.411,3.411,0,0,1,2.472.9c.083.084.167.184.251.284a2.491,2.491,0,0,1,.3.5,6.032,6.032,0,0,1,.217.585,1.687,1.687,0,0,1,.083.418V165h3.541a3.406,3.406,0,0,1,3.341,3.34A3.369,3.369,0,0,1,232.381,171.685Zm-8.3-87.019h-2.2c-.134,0-.284-.017-.418-.017-.2-.05-.4-.084-.6-.134-.167-.05-.9-.2-.434-.134.05,0,.1.017.134.017a1.318,1.318,0,0,1-.234-.083c-.167-.084-.317-.167-.484-.267l-.25-.167c-.033-.05-.451-.384-.535-.451-.033-.033-.184-.167-.317-.3a.352.352,0,0,0-.067-.1l-.05-.1c-.067-.084-.117-.184-.184-.267-.033-.05-.167-.267-.267-.451a.789.789,0,0,1-.05-.15,1.289,1.289,0,0,0-.083-.234c-.017-.033-.017-.05-.033-.083-.067-.2,0-.4-.167-.6v-.217a1.415,1.415,0,0,1-.033-.167.759.759,0,0,0,.033.134c0-.117-.017-.217-.017-.284,0-.284,0-.551.017-.835V63.12c0-2.255.034-4.51.05-6.764l7.75,7.75,20.56,20.56Z" transform="translate(-129.956 -44.898)" fill="currentColor"/>
</svg>
