<svg xmlns="http://www.w3.org/2000/svg" width="275.746" height="245.109" viewBox="0 0 275.746 245.109">
  <path id="Icon_awesome-lock-open" data-name="Icon awesome-lock-open" d="M202.741,0c-40.213.144-72.527,33.272-72.527,73.485v33.75H22.979A22.985,22.985,0,0,0,0,130.214V222.13a22.985,22.985,0,0,0,22.979,22.979H191.491A22.985,22.985,0,0,0,214.47,222.13V130.214a22.985,22.985,0,0,0-22.979-22.979H168.512V73.2c0-18.958,15.176-34.708,34.133-34.9a34.519,34.519,0,0,1,34.8,34.468v38.3a11.462,11.462,0,0,0,11.489,11.489h15.319a11.462,11.462,0,0,0,11.489-11.489v-38.3A72.847,72.847,0,0,0,202.741,0Z" fill="#ccaaef"/>
</svg>
