<svg xmlns="http://www.w3.org/2000/svg" width="526" height="280.859" viewBox="0 0 526 280.859">
  <path id="_33ac343ff4dc95ab2ea25ab80c9ec7d8" data-name="33ac343ff4dc95ab2ea25ab80c9ec7d8" d="M430.855,22.809a50.352,50.352,0,0,0-17.544,37.9,49.65,49.65,0,0,0,11.053,31.053l-71.756,95.09a60.7,60.7,0,0,0-40.176,0l-71.756-95.09a49.65,49.65,0,0,0,11.4-31.053,50.352,50.352,0,0,0-17.544-37.9,60,60,0,0,0-78.949,0,50.352,50.352,0,0,0-17.544,37.9A49.65,49.65,0,0,0,149.1,91.758l-71.4,95.09a60,60,0,0,0-59.3,11.4,50,50,0,0,0,0,75.791,60,60,0,0,0,78.949,0,50.352,50.352,0,0,0,17.544-37.9,49.3,49.3,0,0,0-8.772-28.071l73.159-97.195a55.264,55.264,0,0,0,32.632,0l73.335,97.195a49.475,49.475,0,0,0-8.948,28.071,50.352,50.352,0,0,0,17.544,37.9,60,60,0,0,0,78.949,0,50.352,50.352,0,0,0,17.544-37.9,49.3,49.3,0,0,0-8.948-28.071l73.159-97.195a60.7,60.7,0,0,0,16.316,2.456A59.124,59.124,0,0,0,509.628,98.6a50,50,0,0,0,0-75.791,60,60,0,0,0-78.773,0ZM73.83,247.9a25.088,25.088,0,0,1-32.281,0,14.913,14.913,0,0,1,0-23.509,25.088,25.088,0,0,1,32.281,0,14.913,14.913,0,0,1,0,23.509ZM179.1,72.459a14.913,14.913,0,0,1,0-23.509,25.088,25.088,0,0,1,32.281,0,14.913,14.913,0,0,1,0,23.509A25.088,25.088,0,0,1,179.1,72.459ZM348.923,247.9a25.088,25.088,0,0,1-32.281,0,14.913,14.913,0,0,1,0-23.509,25.088,25.088,0,0,1,32.281,0,14.913,14.913,0,0,1,0,23.509ZM486.47,72.459a25.088,25.088,0,0,1-32.281,0,14.913,14.913,0,0,1,0-23.509,25.088,25.088,0,0,1,32.281,0,14.913,14.913,0,0,1,0,23.509Z" transform="translate(-1.01 -7.996)" fill="currentColor"/>
</svg>
